<svg width="41" height="32" viewBox="0 0 41 32" fill="none" xmlns="http://www.w3.org/2000/svg">
<rect x="0.5" width="40" height="32" rx="16" fill="#3B3B3B"/>
<path d="M17.748 14.064C17.748 13.3707 17.5347 12.816 17.108 12.4C16.6813 11.9733 16.0893 11.76 15.332 11.76C14.9693 11.76 14.6333 11.824 14.324 11.952C14.0253 12.08 13.764 12.2667 13.54 12.512C13.3267 12.7467 13.156 13.0293 13.028 13.36C12.9107 13.6907 12.852 14.0533 12.852 14.448V16.112H13.044C13.3 15.6427 13.6627 15.2747 14.132 15.008C14.612 14.7413 15.1453 14.608 15.732 14.608C16.244 14.608 16.7187 14.6933 17.156 14.864C17.5933 15.024 17.9667 15.264 18.276 15.584C18.596 15.904 18.8413 16.2933 19.012 16.752C19.1933 17.2 19.284 17.712 19.284 18.288V18.48C19.284 19.0347 19.1827 19.5413 18.98 20C18.788 20.4587 18.516 20.8533 18.164 21.184C17.8227 21.5147 17.412 21.7707 16.932 21.952C16.4627 22.1333 15.9507 22.224 15.396 22.224C14.8413 22.224 14.324 22.1333 13.844 21.952C13.3747 21.7707 12.964 21.52 12.612 21.2C12.2707 20.8693 11.9987 20.48 11.796 20.032C11.604 19.5733 11.508 19.072 11.508 18.528V14.448C11.508 13.8613 11.6093 13.328 11.812 12.848C12.0147 12.368 12.292 11.9627 12.644 11.632C12.996 11.2907 13.4013 11.0293 13.86 10.848C14.3293 10.6667 14.8307 10.576 15.364 10.576C15.8973 10.576 16.3933 10.656 16.852 10.816C17.3107 10.976 17.7053 11.2107 18.036 11.52C18.3667 11.8187 18.6227 12.1867 18.804 12.624C18.996 13.0507 19.092 13.5307 19.092 14.064H17.748ZM15.396 21.04C15.78 21.04 16.1267 20.9813 16.436 20.864C16.756 20.736 17.028 20.56 17.252 20.336C17.476 20.112 17.6467 19.8453 17.764 19.536C17.8813 19.2267 17.94 18.8853 17.94 18.512V18.32C17.94 17.9467 17.876 17.6053 17.748 17.296C17.62 16.9867 17.444 16.72 17.22 16.496C16.996 16.272 16.724 16.1013 16.404 15.984C16.0947 15.856 15.7587 15.792 15.396 15.792C15.0333 15.792 14.6973 15.856 14.388 15.984C14.0787 16.112 13.8067 16.288 13.572 16.512C13.348 16.736 13.172 16.9973 13.044 17.296C12.916 17.5947 12.852 17.9147 12.852 18.256V18.56C12.852 18.912 12.9107 19.2427 13.028 19.552C13.1453 19.8507 13.316 20.112 13.54 20.336C13.764 20.56 14.0307 20.736 14.34 20.864C14.66 20.9813 15.012 21.04 15.396 21.04ZM21.4489 10.8H28.9369V12.752L24.2169 19.888C23.9929 20.2293 23.8222 20.5227 23.7049 20.768C23.5875 21.0133 23.5289 21.264 23.5289 21.52V22H22.2169V21.424C22.2169 21.232 22.2329 21.0507 22.2649 20.88C22.3075 20.7093 22.3662 20.5387 22.4409 20.368C22.5262 20.1867 22.6275 20 22.7449 19.808C22.8729 19.6053 23.0222 19.376 23.1929 19.12L27.7849 12.24V12.048H21.4489V10.8Z" fill="white"/>
</svg>
